M48
;Layer_Color=9474304
;FILE_FORMAT=4:4
METRIC,LZ
;TYPE=PLATED
T1F00S00C0.2000
T2F00S00C1.5000
%
T01
X00354Y0013
X00358Y00185
Y00197
Y00209
X00339Y00219
X00336Y001975
X003Y00189
X002985Y002305
X0031Y00256
X00327Y00245
Y00269
X00358Y00291
X00394
Y00209
Y00197
Y00185
X00275Y00171
X00252
X00228
X002035Y00182
X0019825Y00155
X00128Y00156
Y00144
X0012305Y0013095
Y0016905
X00136Y00193
Y002
Y00207
Y00222
X00134Y00246
X00133Y00269
X001845Y002335
X00197Y00231
X002145Y002475
X002185Y002625
X00241Y0026
X0026
Y0024
X00241
X002375Y002135
X002475Y002155
X00274Y00225
X00280999Y00265
X002575Y002805
X00235Y00286
X00248Y003085
X002035Y003045
X00184Y00311
X00133Y00318
X00132Y00294
X0012305Y0036995
X00128Y00383
Y00395
X0012305Y0040805
X00188Y00431
Y00438
Y00445
X00198Y0036995
X00283Y00353
X00282Y00401
X002975Y003625
X002985Y003135
X003175Y003135
X00327Y00328
X00358Y00315
Y00303
X00394
Y00315
X00353Y0037
T02
X0045Y001
Y0017
X0005Y0021
Y0029
X0045Y0032
Y0039
M30
