G04 Layer_Color=65535*
%FSLAX44Y44*%
%MOMM*%
G71*
G01*
G75*
%ADD23C,0.1500*%
%ADD31C,0.2000*%
%ADD33C,0.2540*%
D23*
X15664Y294997D02*
X12332D01*
X13998D01*
Y286666D01*
X12332Y285000D01*
X10666D01*
X9000Y286666D01*
X18997Y285000D02*
X22329D01*
X20663D01*
Y294997D01*
X18997Y293331D01*
X15664Y214997D02*
X12332D01*
X13998D01*
Y206666D01*
X12332Y205000D01*
X10666D01*
X9000Y206666D01*
X25661Y205000D02*
X18997D01*
X25661Y211665D01*
Y213331D01*
X23995Y214997D01*
X20663D01*
X18997Y213331D01*
X481665Y103997D02*
X478332D01*
X479998D01*
Y95666D01*
X478332Y94000D01*
X476666D01*
X475000Y95666D01*
X484997Y102331D02*
X486663Y103997D01*
X489995D01*
X491661Y102331D01*
Y100665D01*
X489995Y98998D01*
X488329D01*
X489995D01*
X491661Y97332D01*
Y95666D01*
X489995Y94000D01*
X486663D01*
X484997Y95666D01*
X481665Y399997D02*
X478332D01*
X479998D01*
Y391666D01*
X478332Y390000D01*
X476666D01*
X475000Y391666D01*
X489995Y390000D02*
Y399997D01*
X484997Y394998D01*
X491661D01*
X481665Y175997D02*
X478332D01*
X479998D01*
Y167666D01*
X478332Y166000D01*
X476666D01*
X475000Y167666D01*
X491661Y175997D02*
X484997D01*
Y170998D01*
X488329Y172665D01*
X489995D01*
X491661Y170998D01*
Y167666D01*
X489995Y166000D01*
X486663D01*
X484997Y167666D01*
X481665Y322997D02*
X478332D01*
X479998D01*
Y314666D01*
X478332Y313000D01*
X476666D01*
X475000Y314666D01*
X491661Y322997D02*
X488329Y321331D01*
X484997Y317998D01*
Y314666D01*
X486663Y313000D01*
X489995D01*
X491661Y314666D01*
Y316332D01*
X489995Y317998D01*
X484997D01*
D31*
X158825Y175000D02*
G03*
X165175Y175000I3175J0D01*
G01*
X158825Y414000D02*
G03*
X165175Y414000I3175J0D01*
G01*
X138000Y184000D02*
X186000D01*
Y216000D01*
X138000D02*
X186000D01*
X138000Y184000D02*
Y216000D01*
X142000Y125000D02*
X182000D01*
X165175Y175000D02*
X182000D01*
X142000D02*
X158825D01*
X207000Y193000D02*
X337000D01*
X207000Y67000D02*
X337000D01*
X207000Y162000D02*
Y193000D01*
Y67000D02*
Y98000D01*
X337000Y161500D02*
Y192500D01*
Y67500D02*
Y98500D01*
X348000Y279000D02*
Y381000D01*
Y279000D02*
X404000D01*
Y381000D01*
X348000D02*
X404000D01*
X348000Y386000D02*
X404000D01*
Y381000D02*
Y386000D01*
X348000Y380000D02*
Y386000D01*
X404000Y119000D02*
Y221000D01*
X348000D02*
X404000D01*
X348000Y119000D02*
Y221000D01*
Y119000D02*
X404000D01*
X348000Y114000D02*
X404000D01*
X348000D02*
Y119000D01*
X404000Y114000D02*
Y120000D01*
X138000Y454000D02*
X186000D01*
X138000Y422000D02*
Y454000D01*
Y422000D02*
X186000D01*
Y454000D01*
X207000Y307000D02*
X337000D01*
X207000Y433000D02*
X337000D01*
Y307000D02*
Y338000D01*
Y402000D02*
Y433000D01*
X207000Y307500D02*
Y338500D01*
Y401500D02*
Y432500D01*
X142000Y364000D02*
X182000D01*
X165175Y414000D02*
X182000D01*
X142000D02*
X158825D01*
D33*
X159157Y233696D02*
X156617Y236235D01*
X151539D01*
X149000Y233696D01*
Y223539D01*
X151539Y221000D01*
X156617D01*
X159157Y223539D01*
X174392Y236235D02*
X164235D01*
Y228617D01*
X169313Y231157D01*
X171853D01*
X174392Y228617D01*
Y223539D01*
X171853Y221000D01*
X166774D01*
X164235Y223539D01*
X158157Y471696D02*
X155618Y474235D01*
X150539D01*
X148000Y471696D01*
Y461539D01*
X150539Y459000D01*
X155618D01*
X158157Y461539D01*
X173392Y474235D02*
X168313Y471696D01*
X163235Y466618D01*
Y461539D01*
X165774Y459000D01*
X170853D01*
X173392Y461539D01*
Y464078D01*
X170853Y466618D01*
X163235D01*
X373157Y403696D02*
X370617Y406235D01*
X365539D01*
X363000Y403696D01*
Y393539D01*
X365539Y391000D01*
X370617D01*
X373157Y393539D01*
X378235D02*
X380774Y391000D01*
X385853D01*
X388392Y393539D01*
Y403696D01*
X385853Y406235D01*
X380774D01*
X378235Y403696D01*
Y401157D01*
X380774Y398618D01*
X388392D01*
X366157Y238696D02*
X363618Y241235D01*
X358539D01*
X356000Y238696D01*
Y228539D01*
X358539Y226000D01*
X363618D01*
X366157Y228539D01*
X371235Y226000D02*
X376313D01*
X373774D01*
Y241235D01*
X371235Y238696D01*
X383931D02*
X386470Y241235D01*
X391549D01*
X394088Y238696D01*
Y228539D01*
X391549Y226000D01*
X386470D01*
X383931Y228539D01*
Y238696D01*
X263000Y214235D02*
Y199000D01*
X273157D01*
X278235D02*
X283313D01*
X280774D01*
Y214235D01*
X278235Y211696D01*
X260000Y453235D02*
Y438000D01*
X270157D01*
X285392D02*
X275235D01*
X285392Y448157D01*
Y450696D01*
X282853Y453235D01*
X277774D01*
X275235Y450696D01*
X162157Y106539D02*
Y116696D01*
X159618Y119235D01*
X154539D01*
X152000Y116696D01*
Y106539D01*
X154539Y104000D01*
X159618D01*
X157078Y109078D02*
X162157Y104000D01*
X159618D02*
X162157Y106539D01*
X167235Y104000D02*
X172313D01*
X169774D01*
Y119235D01*
X167235Y116696D01*
X160157Y345539D02*
Y355696D01*
X157618Y358235D01*
X152539D01*
X150000Y355696D01*
Y345539D01*
X152539Y343000D01*
X157618D01*
X155078Y348078D02*
X160157Y343000D01*
X157618D02*
X160157Y345539D01*
X175392Y343000D02*
X165235D01*
X175392Y353157D01*
Y355696D01*
X172853Y358235D01*
X167774D01*
X165235Y355696D01*
X429618Y429235D02*
X424539D01*
X422000Y426696D01*
Y416539D01*
X424539Y414000D01*
X429618D01*
X432157Y416539D01*
Y426696D01*
X429618Y429235D01*
X437235D02*
Y416539D01*
X439774Y414000D01*
X444853D01*
X447392Y416539D01*
Y429235D01*
X452470D02*
X462627D01*
X457548D01*
Y414000D01*
X477862D02*
X467705D01*
X477862Y424157D01*
Y426696D01*
X475323Y429235D01*
X470244D01*
X467705Y426696D01*
X432617Y75235D02*
X427539D01*
X425000Y72696D01*
Y62539D01*
X427539Y60000D01*
X432617D01*
X435157Y62539D01*
Y72696D01*
X432617Y75235D01*
X440235D02*
Y62539D01*
X442774Y60000D01*
X447853D01*
X450392Y62539D01*
Y75235D01*
X455470D02*
X465627D01*
X460549D01*
Y60000D01*
X470705D02*
X475784D01*
X473244D01*
Y75235D01*
X470705Y72696D01*
X440157Y207696D02*
X437617Y210235D01*
X432539D01*
X430000Y207696D01*
Y197539D01*
X432539Y195000D01*
X437617D01*
X440157Y197539D01*
Y202617D01*
X435078D01*
X445235Y195000D02*
Y210235D01*
X455392Y195000D01*
Y210235D01*
X460470D02*
Y195000D01*
X468088D01*
X470627Y197539D01*
Y207696D01*
X468088Y210235D01*
X460470D01*
X440157Y292696D02*
X437617Y295235D01*
X432539D01*
X430000Y292696D01*
Y282539D01*
X432539Y280000D01*
X437617D01*
X440157Y282539D01*
Y287617D01*
X435078D01*
X445235Y280000D02*
Y295235D01*
X455392Y280000D01*
Y295235D01*
X460470D02*
Y280000D01*
X468088D01*
X470627Y282539D01*
Y292696D01*
X468088Y295235D01*
X460470D01*
X40157Y182696D02*
X37617Y185235D01*
X32539D01*
X30000Y182696D01*
Y172539D01*
X32539Y170000D01*
X37617D01*
X40157Y172539D01*
Y177617D01*
X35078D01*
X45235Y170000D02*
Y185235D01*
X55392Y170000D01*
Y185235D01*
X60470D02*
Y170000D01*
X68088D01*
X70627Y172539D01*
Y182696D01*
X68088Y185235D01*
X60470D01*
X22000Y321618D02*
X32157D01*
X27078Y326696D02*
Y316539D01*
X37235Y329235D02*
Y319078D01*
X42313Y314000D01*
X47392Y319078D01*
Y329235D01*
X52470D02*
X57548D01*
X55009D01*
Y314000D01*
X52470D01*
X57548D01*
X65166D02*
Y329235D01*
X75323Y314000D01*
Y329235D01*
M02*
