G04 Layer_Color=128*
%FSLAX44Y44*%
%MOMM*%
G71*
G01*
G75*
%ADD24R,0.9000X1.3000*%
%ADD25R,0.7000X1.3000*%
%ADD26R,0.9000X1.6000*%
%ADD27R,1.3000X0.7000*%
%ADD28R,3.3000X3.3000*%
%ADD29R,0.2300X0.6000*%
%ADD30R,0.6000X0.2300*%
D24*
X184500Y293000D02*
D03*
X203500D02*
D03*
X203500Y198000D02*
D03*
X184500D02*
D03*
X203500Y246000D02*
D03*
X184500D02*
D03*
X317500Y328000D02*
D03*
X298500D02*
D03*
X298500Y304000D02*
D03*
X317500D02*
D03*
X317500Y269000D02*
D03*
X298500D02*
D03*
X298500Y245000D02*
D03*
X317500D02*
D03*
D25*
X185500Y269000D02*
D03*
X204500D02*
D03*
X297500Y352000D02*
D03*
X316500D02*
D03*
X204500Y222000D02*
D03*
X185500D02*
D03*
X143500Y318000D02*
D03*
X162500D02*
D03*
X143500Y222000D02*
D03*
X162500D02*
D03*
X162500Y246000D02*
D03*
X143500D02*
D03*
X143500Y269000D02*
D03*
X162500D02*
D03*
X162500Y294000D02*
D03*
X143500D02*
D03*
X255500Y401000D02*
D03*
X274500D02*
D03*
X274500Y377000D02*
D03*
X255500D02*
D03*
X274500Y353000D02*
D03*
X255500D02*
D03*
X274500Y329000D02*
D03*
X255500D02*
D03*
D26*
X329500Y219000D02*
D03*
X298500D02*
D03*
D27*
X324000Y178500D02*
D03*
Y197500D02*
D03*
X300000Y197500D02*
D03*
Y178500D02*
D03*
X275000Y178500D02*
D03*
Y197500D02*
D03*
X252000Y197500D02*
D03*
Y178500D02*
D03*
X228000Y178500D02*
D03*
Y197500D02*
D03*
X259000Y308500D02*
D03*
Y289500D02*
D03*
D28*
X250000Y250000D02*
D03*
D29*
X267500Y274000D02*
D03*
X262500D02*
D03*
X257500D02*
D03*
X252500D02*
D03*
X247500D02*
D03*
X242500D02*
D03*
X237500D02*
D03*
X232500D02*
D03*
Y226000D02*
D03*
X237500D02*
D03*
X242500D02*
D03*
X247500D02*
D03*
X252500D02*
D03*
X257500D02*
D03*
X262500D02*
D03*
X267500D02*
D03*
D30*
X226000Y267500D02*
D03*
Y262500D02*
D03*
Y257500D02*
D03*
Y252500D02*
D03*
Y247500D02*
D03*
Y242500D02*
D03*
Y237500D02*
D03*
Y232500D02*
D03*
X274000D02*
D03*
Y237500D02*
D03*
Y242500D02*
D03*
Y247500D02*
D03*
Y252500D02*
D03*
Y257500D02*
D03*
Y262500D02*
D03*
Y267500D02*
D03*
M02*
