G04 Layer_Physical_Order=4*
G04 Layer_Color=16440176*
%FSLAX44Y44*%
%MOMM*%
G71*
G01*
G75*
%ADD17C,0.4500*%
G36*
X367000Y154000D02*
X202875D01*
X202070Y154982D01*
X202073Y155000D01*
X201782Y156463D01*
X200954Y157704D01*
X199713Y158532D01*
X198250Y158823D01*
X196787Y158532D01*
X195546Y157704D01*
X194718Y156463D01*
X194427Y155000D01*
X194430Y154982D01*
X193624Y154000D01*
X132585D01*
X131678Y155270D01*
X131823Y156000D01*
X131532Y157463D01*
X130704Y158704D01*
X129463Y159532D01*
X128000Y159823D01*
X126537Y159532D01*
X125296Y158704D01*
X124468Y157463D01*
X124177Y156000D01*
X124322Y155270D01*
X123415Y154000D01*
X115000D01*
Y377000D01*
X367000D01*
Y154000D01*
D02*
G37*
%LPC*%
G36*
X136000Y225823D02*
X134537Y225532D01*
X133296Y224704D01*
X132468Y223463D01*
X132177Y222000D01*
X132468Y220537D01*
X133296Y219296D01*
X134537Y218468D01*
X136000Y218177D01*
X137463Y218468D01*
X138704Y219296D01*
X139532Y220537D01*
X139823Y222000D01*
X139532Y223463D01*
X138704Y224704D01*
X137463Y225532D01*
X136000Y225823D01*
D02*
G37*
G36*
X274000Y228823D02*
X272537Y228532D01*
X271296Y227704D01*
X270468Y226463D01*
X270177Y225000D01*
X270468Y223537D01*
X271296Y222296D01*
X272537Y221468D01*
X274000Y221177D01*
X275463Y221468D01*
X276704Y222296D01*
X277532Y223537D01*
X277823Y225000D01*
X277532Y226463D01*
X276704Y227704D01*
X275463Y228532D01*
X274000Y228823D01*
D02*
G37*
G36*
X247500Y219324D02*
X246037Y219032D01*
X244796Y218204D01*
X243968Y216963D01*
X243677Y215500D01*
X243968Y214037D01*
X244796Y212796D01*
X246037Y211968D01*
X247500Y211677D01*
X248963Y211968D01*
X250204Y212796D01*
X251032Y214037D01*
X251323Y215500D01*
X251032Y216963D01*
X250204Y218204D01*
X248963Y219032D01*
X247500Y219324D01*
D02*
G37*
G36*
X339000Y222823D02*
X337537Y222532D01*
X336296Y221704D01*
X335468Y220463D01*
X335177Y219000D01*
X335468Y217537D01*
X336296Y216296D01*
X337537Y215468D01*
X339000Y215177D01*
X340463Y215468D01*
X341704Y216296D01*
X342532Y217537D01*
X342823Y219000D01*
X342532Y220463D01*
X341704Y221704D01*
X340463Y222532D01*
X339000Y222823D01*
D02*
G37*
G36*
X298500Y234323D02*
X297037Y234032D01*
X295796Y233204D01*
X294968Y231963D01*
X294677Y230500D01*
X294968Y229037D01*
X295796Y227796D01*
X297037Y226968D01*
X298500Y226677D01*
X299963Y226968D01*
X301204Y227796D01*
X302032Y229037D01*
X302323Y230500D01*
X302032Y231963D01*
X301204Y233204D01*
X299963Y234032D01*
X298500Y234323D01*
D02*
G37*
G36*
X241000Y243823D02*
X239537Y243532D01*
X238296Y242704D01*
X237468Y241463D01*
X237177Y240000D01*
X237468Y238537D01*
X238296Y237296D01*
X239537Y236468D01*
X241000Y236177D01*
X242463Y236468D01*
X243704Y237296D01*
X244532Y238537D01*
X244823Y240000D01*
X244532Y241463D01*
X243704Y242704D01*
X242463Y243532D01*
X241000Y243823D01*
D02*
G37*
G36*
X260000D02*
X258537Y243532D01*
X257296Y242704D01*
X256468Y241463D01*
X256177Y240000D01*
X256468Y238537D01*
X257296Y237296D01*
X258537Y236468D01*
X260000Y236177D01*
X261463Y236468D01*
X262704Y237296D01*
X263532Y238537D01*
X263823Y240000D01*
X263532Y241463D01*
X262704Y242704D01*
X261463Y243532D01*
X260000Y243823D01*
D02*
G37*
G36*
X197000Y234823D02*
X195537Y234532D01*
X194296Y233704D01*
X193468Y232463D01*
X193177Y231000D01*
X193468Y229537D01*
X194296Y228296D01*
X195537Y227468D01*
X197000Y227177D01*
X198463Y227468D01*
X199704Y228296D01*
X200532Y229537D01*
X200823Y231000D01*
X200532Y232463D01*
X199704Y233704D01*
X198463Y234532D01*
X197000Y234823D01*
D02*
G37*
G36*
X184500Y237323D02*
X183037Y237032D01*
X181796Y236204D01*
X180968Y234963D01*
X180677Y233500D01*
X180968Y232037D01*
X181796Y230796D01*
X183037Y229968D01*
X184500Y229677D01*
X185963Y229968D01*
X187204Y230796D01*
X188032Y232037D01*
X188323Y233500D01*
X188032Y234963D01*
X187204Y236204D01*
X185963Y237032D01*
X184500Y237323D01*
D02*
G37*
G36*
X237500Y217323D02*
X236037Y217032D01*
X234797Y216204D01*
X233968Y214963D01*
X233677Y213500D01*
X233968Y212037D01*
X234797Y210796D01*
X236037Y209968D01*
X237500Y209676D01*
X238963Y209968D01*
X240204Y210796D01*
X241032Y212037D01*
X241324Y213500D01*
X241032Y214963D01*
X240204Y216204D01*
X238963Y217032D01*
X237500Y217323D01*
D02*
G37*
G36*
X203500Y185823D02*
X202037Y185532D01*
X200796Y184704D01*
X199968Y183463D01*
X199677Y182000D01*
X199968Y180537D01*
X200796Y179296D01*
X202037Y178468D01*
X203500Y178177D01*
X204963Y178468D01*
X206204Y179296D01*
X207032Y180537D01*
X207323Y182000D01*
X207032Y183463D01*
X206204Y184704D01*
X204963Y185532D01*
X203500Y185823D01*
D02*
G37*
G36*
X358000Y188823D02*
X356537Y188532D01*
X355296Y187704D01*
X354468Y186463D01*
X354177Y185000D01*
X354468Y183537D01*
X355296Y182296D01*
X356537Y181468D01*
X358000Y181177D01*
X359463Y181468D01*
X360704Y182296D01*
X361532Y183537D01*
X361823Y185000D01*
X361532Y186463D01*
X360704Y187704D01*
X359463Y188532D01*
X358000Y188823D01*
D02*
G37*
G36*
X123050Y172873D02*
X121587Y172582D01*
X120346Y171754D01*
X119518Y170513D01*
X119227Y169050D01*
X119518Y167587D01*
X120346Y166346D01*
X121587Y165518D01*
X123050Y165226D01*
X124513Y165518D01*
X125754Y166346D01*
X126582Y167587D01*
X126873Y169050D01*
X126582Y170513D01*
X125754Y171754D01*
X124513Y172582D01*
X123050Y172873D01*
D02*
G37*
G36*
X252000Y174823D02*
X250537Y174532D01*
X249296Y173704D01*
X248468Y172463D01*
X248176Y171000D01*
X248468Y169537D01*
X249296Y168296D01*
X250537Y167468D01*
X252000Y167177D01*
X253463Y167468D01*
X254704Y168296D01*
X255532Y169537D01*
X255823Y171000D01*
X255532Y172463D01*
X254704Y173704D01*
X253463Y174532D01*
X252000Y174823D01*
D02*
G37*
G36*
X300000Y192823D02*
X298537Y192532D01*
X297296Y191704D01*
X296468Y190463D01*
X296177Y189000D01*
X296468Y187537D01*
X297296Y186296D01*
X298537Y185468D01*
X300000Y185177D01*
X301463Y185468D01*
X302704Y186296D01*
X303532Y187537D01*
X303823Y189000D01*
X303532Y190463D01*
X302704Y191704D01*
X301463Y192532D01*
X300000Y192823D01*
D02*
G37*
G36*
X336000Y201323D02*
X334537Y201032D01*
X333296Y200204D01*
X332468Y198963D01*
X332177Y197500D01*
X332468Y196037D01*
X333296Y194796D01*
X334537Y193968D01*
X336000Y193676D01*
X337463Y193968D01*
X338704Y194796D01*
X339532Y196037D01*
X339823Y197500D01*
X339532Y198963D01*
X338704Y200204D01*
X337463Y201032D01*
X336000Y201323D01*
D02*
G37*
G36*
X358000Y212823D02*
X356537Y212532D01*
X355296Y211704D01*
X354468Y210463D01*
X354177Y209000D01*
X354468Y207537D01*
X355296Y206296D01*
X356537Y205468D01*
X358000Y205177D01*
X359463Y205468D01*
X360704Y206296D01*
X361532Y207537D01*
X361823Y209000D01*
X361532Y210463D01*
X360704Y211704D01*
X359463Y212532D01*
X358000Y212823D01*
D02*
G37*
G36*
X136000Y210823D02*
X134537Y210532D01*
X133296Y209704D01*
X132468Y208463D01*
X132177Y207000D01*
X132468Y205537D01*
X133296Y204296D01*
X133538Y204135D01*
Y202865D01*
X133296Y202704D01*
X132468Y201463D01*
X132177Y200000D01*
X132468Y198537D01*
X133296Y197296D01*
X133538Y197135D01*
Y195865D01*
X133296Y195704D01*
X132468Y194463D01*
X132177Y193000D01*
X132468Y191537D01*
X133296Y190296D01*
X134537Y189468D01*
X136000Y189177D01*
X137463Y189468D01*
X138704Y190296D01*
X139532Y191537D01*
X139823Y193000D01*
X139532Y194463D01*
X138704Y195704D01*
X138462Y195865D01*
Y197135D01*
X138704Y197296D01*
X139532Y198537D01*
X139823Y200000D01*
X139532Y201463D01*
X138704Y202704D01*
X138462Y202865D01*
Y204135D01*
X138704Y204296D01*
X139532Y205537D01*
X139823Y207000D01*
X139532Y208463D01*
X138704Y209704D01*
X137463Y210532D01*
X136000Y210823D01*
D02*
G37*
G36*
X358000Y200823D02*
X356537Y200532D01*
X355296Y199704D01*
X354468Y198463D01*
X354177Y197000D01*
X354468Y195537D01*
X355296Y194296D01*
X356537Y193468D01*
X358000Y193177D01*
X359463Y193468D01*
X360704Y194296D01*
X361532Y195537D01*
X361823Y197000D01*
X361532Y198463D01*
X360704Y199704D01*
X359463Y200532D01*
X358000Y200823D01*
D02*
G37*
G36*
X184000Y314823D02*
X182537Y314532D01*
X181296Y313704D01*
X180468Y312463D01*
X180177Y311000D01*
X180468Y309537D01*
X181296Y308296D01*
X182537Y307468D01*
X184000Y307177D01*
X185463Y307468D01*
X186704Y308296D01*
X187532Y309537D01*
X187823Y311000D01*
X187532Y312463D01*
X186704Y313704D01*
X185463Y314532D01*
X184000Y314823D01*
D02*
G37*
G36*
X317500Y317323D02*
X316037Y317032D01*
X314796Y316204D01*
X313968Y314963D01*
X313676Y313500D01*
X313968Y312037D01*
X314796Y310796D01*
X316037Y309968D01*
X317500Y309677D01*
X318963Y309968D01*
X320204Y310796D01*
X321032Y312037D01*
X321323Y313500D01*
X321032Y314963D01*
X320204Y316204D01*
X318963Y317032D01*
X317500Y317323D01*
D02*
G37*
G36*
X248000Y312323D02*
X246537Y312032D01*
X245296Y311204D01*
X244468Y309963D01*
X244177Y308500D01*
X244468Y307037D01*
X245296Y305796D01*
X246537Y304968D01*
X248000Y304677D01*
X249463Y304968D01*
X250704Y305796D01*
X251532Y307037D01*
X251823Y308500D01*
X251532Y309963D01*
X250704Y311204D01*
X249463Y312032D01*
X248000Y312323D01*
D02*
G37*
G36*
X358000Y306823D02*
X356537Y306532D01*
X355296Y305704D01*
X354468Y304463D01*
X354177Y303000D01*
X354468Y301537D01*
X355296Y300296D01*
X356537Y299468D01*
X358000Y299177D01*
X359463Y299468D01*
X360704Y300296D01*
X361532Y301537D01*
X361823Y303000D01*
X361532Y304463D01*
X360704Y305704D01*
X359463Y306532D01*
X358000Y306823D01*
D02*
G37*
G36*
X203500Y308323D02*
X202037Y308032D01*
X200796Y307204D01*
X199968Y305963D01*
X199676Y304500D01*
X199968Y303037D01*
X200796Y301796D01*
X202037Y300968D01*
X203500Y300676D01*
X204963Y300968D01*
X206203Y301796D01*
X207032Y303037D01*
X207323Y304500D01*
X207032Y305963D01*
X206203Y307204D01*
X204963Y308032D01*
X203500Y308323D01*
D02*
G37*
G36*
X198000Y373773D02*
X196537Y373482D01*
X195296Y372654D01*
X194468Y371413D01*
X194177Y369950D01*
X194468Y368487D01*
X195296Y367246D01*
X196537Y366418D01*
X198000Y366127D01*
X199463Y366418D01*
X200704Y367246D01*
X201532Y368487D01*
X201823Y369950D01*
X201532Y371413D01*
X200704Y372654D01*
X199463Y373482D01*
X198000Y373773D01*
D02*
G37*
G36*
X353000Y373823D02*
X351537Y373532D01*
X350296Y372704D01*
X349468Y371463D01*
X349177Y370000D01*
X349468Y368537D01*
X350296Y367296D01*
X351537Y366468D01*
X353000Y366177D01*
X354463Y366468D01*
X355704Y367296D01*
X356532Y368537D01*
X356823Y370000D01*
X356532Y371463D01*
X355704Y372704D01*
X354463Y373532D01*
X353000Y373823D01*
D02*
G37*
G36*
X123050Y373773D02*
X121587Y373482D01*
X120346Y372654D01*
X119518Y371413D01*
X119227Y369950D01*
X119518Y368487D01*
X120346Y367246D01*
X121587Y366418D01*
X123050Y366127D01*
X124513Y366418D01*
X125753Y367246D01*
X126582Y368487D01*
X126873Y369950D01*
X126582Y371413D01*
X125753Y372654D01*
X124513Y373482D01*
X123050Y373773D01*
D02*
G37*
G36*
X358000Y318823D02*
X356537Y318532D01*
X355296Y317704D01*
X354468Y316463D01*
X354177Y315000D01*
X354468Y313537D01*
X355296Y312296D01*
X356537Y311468D01*
X358000Y311177D01*
X359463Y311468D01*
X360704Y312296D01*
X361532Y313537D01*
X361823Y315000D01*
X361532Y316463D01*
X360704Y317704D01*
X359463Y318532D01*
X358000Y318823D01*
D02*
G37*
G36*
X327000Y331823D02*
X325537Y331532D01*
X324296Y330704D01*
X323468Y329463D01*
X323177Y328000D01*
X323468Y326537D01*
X324296Y325296D01*
X325537Y324468D01*
X327000Y324176D01*
X328463Y324468D01*
X329704Y325296D01*
X330532Y326537D01*
X330823Y328000D01*
X330532Y329463D01*
X329704Y330704D01*
X328463Y331532D01*
X327000Y331823D01*
D02*
G37*
G36*
X241000Y263823D02*
X239537Y263532D01*
X238296Y262704D01*
X237468Y261463D01*
X237177Y260000D01*
X237468Y258537D01*
X238296Y257296D01*
X239537Y256468D01*
X241000Y256177D01*
X242463Y256468D01*
X243704Y257296D01*
X244532Y258537D01*
X244823Y260000D01*
X244532Y261463D01*
X243704Y262704D01*
X242463Y263532D01*
X241000Y263823D01*
D02*
G37*
G36*
X260000D02*
X258537Y263532D01*
X257296Y262704D01*
X256468Y261463D01*
X256177Y260000D01*
X256468Y258537D01*
X257296Y257296D01*
X258537Y256468D01*
X260000Y256177D01*
X261463Y256468D01*
X262704Y257296D01*
X263532Y258537D01*
X263823Y260000D01*
X263532Y261463D01*
X262704Y262704D01*
X261463Y263532D01*
X260000Y263823D01*
D02*
G37*
G36*
X310000Y259823D02*
X308537Y259532D01*
X307296Y258703D01*
X306468Y257463D01*
X306177Y256000D01*
X306468Y254537D01*
X307296Y253296D01*
X308537Y252468D01*
X310000Y252176D01*
X311463Y252468D01*
X312704Y253296D01*
X313532Y254537D01*
X313823Y256000D01*
X313532Y257463D01*
X312704Y258703D01*
X311463Y259532D01*
X310000Y259823D01*
D02*
G37*
G36*
X327000Y248823D02*
X325537Y248532D01*
X324296Y247704D01*
X323468Y246463D01*
X323177Y245000D01*
X323468Y243537D01*
X324296Y242296D01*
X325537Y241468D01*
X327000Y241177D01*
X328463Y241468D01*
X329704Y242296D01*
X330532Y243537D01*
X330823Y245000D01*
X330532Y246463D01*
X329704Y247704D01*
X328463Y248532D01*
X327000Y248823D01*
D02*
G37*
G36*
X134000Y249823D02*
X132537Y249532D01*
X131296Y248704D01*
X130468Y247463D01*
X130177Y246000D01*
X130468Y244537D01*
X131296Y243296D01*
X132537Y242468D01*
X134000Y242177D01*
X135463Y242468D01*
X136704Y243296D01*
X137532Y244537D01*
X137823Y246000D01*
X137532Y247463D01*
X136704Y248704D01*
X135463Y249532D01*
X134000Y249823D01*
D02*
G37*
G36*
X235000Y289823D02*
X233537Y289532D01*
X232296Y288704D01*
X231468Y287463D01*
X231177Y286000D01*
X231468Y284537D01*
X232296Y283296D01*
X233537Y282468D01*
X235000Y282177D01*
X236463Y282468D01*
X237704Y283296D01*
X238532Y284537D01*
X238823Y286000D01*
X238532Y287463D01*
X237704Y288704D01*
X236463Y289532D01*
X235000Y289823D01*
D02*
G37*
G36*
X358000Y294823D02*
X356537Y294532D01*
X355296Y293704D01*
X354468Y292463D01*
X354177Y291000D01*
X354468Y289537D01*
X355296Y288296D01*
X356537Y287468D01*
X358000Y287177D01*
X359463Y287468D01*
X360704Y288296D01*
X361532Y289537D01*
X361823Y291000D01*
X361532Y292463D01*
X360704Y293704D01*
X359463Y294532D01*
X358000Y294823D01*
D02*
G37*
G36*
X257500Y284323D02*
X256037Y284032D01*
X254796Y283204D01*
X253968Y281963D01*
X253677Y280500D01*
X253968Y279037D01*
X254796Y277796D01*
X256037Y276968D01*
X257500Y276677D01*
X258963Y276968D01*
X260204Y277796D01*
X261032Y279037D01*
X261323Y280500D01*
X261032Y281963D01*
X260204Y283204D01*
X258963Y284032D01*
X257500Y284323D01*
D02*
G37*
G36*
X218500Y266323D02*
X217037Y266032D01*
X215796Y265204D01*
X214968Y263963D01*
X214677Y262500D01*
X214968Y261037D01*
X215796Y259796D01*
X217037Y258968D01*
X218500Y258676D01*
X219963Y258968D01*
X221204Y259796D01*
X222032Y261037D01*
X222323Y262500D01*
X222032Y263963D01*
X221204Y265204D01*
X219963Y266032D01*
X218500Y266323D01*
D02*
G37*
G36*
X327000Y272823D02*
X325537Y272532D01*
X324296Y271704D01*
X323468Y270463D01*
X323177Y269000D01*
X323468Y267537D01*
X324296Y266296D01*
X325537Y265468D01*
X327000Y265177D01*
X328463Y265468D01*
X329704Y266296D01*
X330532Y267537D01*
X330823Y269000D01*
X330532Y270463D01*
X329704Y271704D01*
X328463Y272532D01*
X327000Y272823D01*
D02*
G37*
%LPD*%
D17*
X133000Y318000D02*
D03*
X132000Y294000D02*
D03*
X133000Y269000D02*
D03*
X280999Y265000D02*
D03*
X298500Y313500D02*
D03*
X275000Y171000D02*
D03*
X228000D02*
D03*
X214500Y247500D02*
D03*
X283000Y353000D02*
D03*
X297500Y362500D02*
D03*
M02*
