G04 Layer_Color=16711935*
%FSLAX44Y44*%
%MOMM*%
G71*
G01*
G75*
%ADD38C,4.2032*%
%ADD39R,1.1032X1.5032*%
%ADD40R,0.9032X1.5032*%
%ADD41R,1.1032X1.8032*%
%ADD42R,1.5032X0.9032*%
%ADD43R,3.4000X3.4000*%
%ADD44R,0.3300X0.7000*%
%ADD45R,0.7000X0.3300*%
D38*
X450000Y100000D02*
D03*
Y170000D02*
D03*
Y320000D02*
D03*
X50000Y290000D02*
D03*
X450000Y390000D02*
D03*
X50000Y210000D02*
D03*
D39*
X184500Y293000D02*
D03*
X203500D02*
D03*
X203500Y198000D02*
D03*
X184500D02*
D03*
X203500Y246000D02*
D03*
X184500D02*
D03*
X317500Y328000D02*
D03*
X298500D02*
D03*
X298500Y304000D02*
D03*
X317500D02*
D03*
X317500Y269000D02*
D03*
X298500D02*
D03*
X298500Y245000D02*
D03*
X317500D02*
D03*
D40*
X185500Y269000D02*
D03*
X204500D02*
D03*
X297500Y352000D02*
D03*
X316500D02*
D03*
X204500Y222000D02*
D03*
X185500D02*
D03*
X143500Y318000D02*
D03*
X162500D02*
D03*
X143500Y222000D02*
D03*
X162500D02*
D03*
X162500Y246000D02*
D03*
X143500D02*
D03*
X143500Y269000D02*
D03*
X162500D02*
D03*
X162500Y294000D02*
D03*
X143500D02*
D03*
X255500Y401000D02*
D03*
X274500D02*
D03*
X274500Y377000D02*
D03*
X255500D02*
D03*
X274500Y353000D02*
D03*
X255500D02*
D03*
X274500Y329000D02*
D03*
X255500D02*
D03*
D41*
X329500Y219000D02*
D03*
X298500D02*
D03*
D42*
X324000Y178500D02*
D03*
Y197500D02*
D03*
X300000Y197500D02*
D03*
Y178500D02*
D03*
X275000Y178500D02*
D03*
Y197500D02*
D03*
X252000Y197500D02*
D03*
Y178500D02*
D03*
X228000Y178500D02*
D03*
Y197500D02*
D03*
X259000Y308500D02*
D03*
Y289500D02*
D03*
D43*
X250000Y250000D02*
D03*
D44*
X267500Y274000D02*
D03*
X262500D02*
D03*
X257500D02*
D03*
X252500D02*
D03*
X247500D02*
D03*
X242500D02*
D03*
X237500D02*
D03*
X232500D02*
D03*
Y226000D02*
D03*
X237500D02*
D03*
X242500D02*
D03*
X247500D02*
D03*
X252500D02*
D03*
X257500D02*
D03*
X262500D02*
D03*
X267500D02*
D03*
D45*
X226000Y267500D02*
D03*
Y262500D02*
D03*
Y257500D02*
D03*
Y252500D02*
D03*
Y247500D02*
D03*
Y242500D02*
D03*
Y237500D02*
D03*
Y232500D02*
D03*
X274000D02*
D03*
Y237500D02*
D03*
Y242500D02*
D03*
Y247500D02*
D03*
Y252500D02*
D03*
Y257500D02*
D03*
Y262500D02*
D03*
Y267500D02*
D03*
M02*
