G04 Layer_Physical_Order=3*
G04 Layer_Color=36540*
%FSLAX44Y44*%
%MOMM*%
G71*
G01*
G75*
%ADD14C,0.5000*%
%ADD17C,0.4500*%
%ADD22C,1.0000*%
%ADD23C,0.1500*%
D14*
X257500Y280500D02*
X268000Y291000D01*
X276000D01*
X198000Y249000D02*
X214000Y233000D01*
X157000Y249000D02*
X198000D01*
X136000Y228000D02*
X157000Y249000D01*
X214000Y233000D02*
X296000D01*
X298500Y230500D01*
X136000Y222000D02*
Y228000D01*
D17*
X197000Y231000D02*
D03*
X298500Y230500D02*
D03*
X136000Y222000D02*
D03*
X257500Y280500D02*
D03*
X237500Y213500D02*
D03*
X123050Y169050D02*
D03*
X184000Y311000D02*
D03*
X203500Y304500D02*
D03*
X218500Y262500D02*
D03*
X235000Y286000D02*
D03*
X198250Y155000D02*
D03*
X203500Y182000D02*
D03*
X354000Y130000D02*
D03*
X300000Y189000D02*
D03*
X247500Y215500D02*
D03*
X123050Y130950D02*
D03*
X123050Y408050D02*
D03*
Y369950D02*
D03*
X198000D02*
D03*
X353000Y370000D02*
D03*
D22*
X150000Y184000D02*
X171000Y205000D01*
X112000Y184000D02*
X150000D01*
X106000Y178000D02*
X112000Y184000D01*
X353000Y330000D02*
Y370000D01*
X314000Y291000D02*
X353000Y330000D01*
X276000Y291000D02*
X314000D01*
X354000Y130000D02*
Y135000D01*
X300000Y189000D02*
X354000Y135000D01*
X171000Y205000D02*
X197000Y231000D01*
X170050Y169050D02*
X214500Y213500D01*
X123050Y169050D02*
X170050D01*
X214500Y213500D02*
X237500D01*
X106000Y148000D02*
Y178000D01*
Y148000D02*
X123050Y130950D01*
X201874Y262500D02*
X218500D01*
X123424Y340950D02*
X201874Y262500D01*
X123050Y340950D02*
X123424D01*
X198000Y369950D02*
X203500Y364450D01*
Y304500D02*
Y364450D01*
X179950Y408050D02*
X235000Y353000D01*
Y286000D02*
Y353000D01*
X123050Y340950D02*
Y369950D01*
X198250Y176750D02*
X203500Y182000D01*
X198250Y155000D02*
Y176750D01*
X123050Y408050D02*
X179950D01*
D23*
X280500Y275500D02*
X310000Y246000D01*
Y216000D02*
Y246000D01*
X293000Y199000D02*
X310000Y216000D01*
X264000Y199000D02*
X293000D01*
X207500Y275500D02*
X280500D01*
X184000Y299000D02*
X207500Y275500D01*
X184000Y299000D02*
Y311000D01*
X247500Y215500D02*
X264000Y199000D01*
M02*
